<?xml version="1.0" encoding="utf-8" standalone="no"?>
<svg viewBox="0 0 34 34" version="1.1" xmlns="http://www.w3.org/2000/svg" xmlns:xlink="http://www.w3.org/1999/xlink" stroke-linecap="round" stroke-linejoin="round" fill-rule="evenodd" xml:space="preserve" >
<g fill="none" stroke="rgb(0,0,0)" stroke-width="0.05" >
<polygon points="23.8031,1.88189 10.1969,1.88189 10.1137,1.88231 10.0306,1.88355 9.94744,1.88563 9.86434,1.88854 9.78128,1.89228 9.69825,1.89685 9.61528,1.90225 9.53236,1.90848 9.44951,1.91554 9.36674,1.92343 9.28405,1.93214 9.20145,1.94169 9.11895,1.95205 9.03655,1.96324 8.95428,1.97526 8.87213,1.98809 8.79011,2.00175 8.70823,2.01623 8.6265,2.03152 8.54492,2.04764 8.46351,2.06456 8.38228,2.0823 8.30123,2.10085 8.22036,2.12021 8.1397,2.14038 8.05924,2.16136 7.97899,2.18313 7.89896,2.20571 7.81917,2.22909 7.73961,2.25327 7.6603,2.27823 7.58124,2.304 7.50245,2.33055 7.42392,2.35788 7.34567,2.386 7.2677,2.41491 7.19003,2.44459 7.11266,2.47504 7.0356,2.50627 6.95885,2.53826 6.88243,2.57103 6.80634,2.60455 6.73059,2.63884 6.65518,2.67388 6.58013,2.70967 6.50544,2.74621 6.43112,2.7835 6.35717,2.82152 6.28361,2.86029 6.21045,2.89979 6.13768,2.94001 6.06531,2.98097 5.99336,3.02264 5.92183,3.06504 5.85073,3.10814 5.78006,3.15196 5.70983,3.19648 5.64005,3.2417 5.57073,3.28761 5.50187,3.33422 5.43348,3.38151 5.36557,3.42948 5.29813,3.47813 5.23119,3.52746 5.16475,3.57744 5.09881,3.6281 5.03338,3.6794 4.96846,3.73136 4.90407,3.78397 4.84021,3.83722 4.77688,3.8911 4.71409,3.94562 4.65186,4.00075 4.59017,4.05651 4.52905,4.11289 4.4685,4.16987 4.40851,4.22745 4.34911,4.28563 4.29029,4.3444 4.23206,4.40376 4.17443,4.4637 4.1174,4.52421 4.06098,4.58529 4.00517,4.64692 3.94998,4.70912 3.89542,4.77186 3.84149,4.83514 3.78819,4.89896 3.73553,4.96331 3.68352,5.02819 3.63216,5.09358 3.58145,5.15948 3.53141,5.22588 3.48204,5.29279 3.43333,5.36018 3.3853,5.42805 3.33796,5.49641 3.2913,5.56523 3.24533,5.63452 3.20005,5.70426 3.15548,5.77445 3.11161,5.84508 3.06844,5.91615 3.02599,5.98765 2.98426,6.05957 2.94325,6.1319 2.90296,6.20464 2.86341,6.27777 2.82458,6.3513 2.7865,6.42522 2.74915,6.49951 2.71255,6.57417 2.6767,6.64919 2.6416,6.72457 2.60725,6.80029 2.57367,6.87636 2.54085,6.95275 2.50879,7.02948 2.4775,7.10651 2.44698,7.18386 2.41724,7.26151 2.38828,7.33945 2.36009,7.41768 2.33269,7.49618 2.30608,7.57496 2.28026,7.65399 2.25522,7.73329 2.23099,7.81282 2.20754,7.8926 2.1849,7.97261 2.16306,8.05284 2.14202,8.13328 2.12179,8.21393 2.10236,8.29478 2.08375,8.37582 2.06594,8.45704 2.04895,8.53843 2.03278,8.61999 2.01742,8.70171 2.00287,8.78358 1.98915,8.86559 1.97625,8.94773 1.96417,9.03 1.95291,9.11238 1.94248,9.19487 1.93287,9.27747 1.92409,9.36015 1.91614,9.44292 1.90902,9.52576 1.90272,9.60867 1.89725,9.69164 1.89261,9.77466 1.88881,9.85772 1.88583,9.94082 1.88369,10.0239 1.88237,10.1071 1.88189,10.1902 1.88189,10.1969 1.88189,23.8031 1.88231,23.8863 1.88355,23.9694 1.88563,24.0526 1.88854,24.1357 1.89228,24.2187 1.89685,24.3017 1.90225,24.3847 1.90848,24.4676 1.91554,24.5505 1.92343,24.6333 1.93214,24.716 1.94169,24.7986 1.95205,24.8811 1.96324,24.9634 1.97526,25.0457 1.98809,25.1279 2.00175,25.2099 2.01623,25.2918 2.03152,25.3735 2.04764,25.4551 2.06456,25.5365 2.0823,25.6177 2.10085,25.6988 2.12021,25.7796 2.14038,25.8603 2.16136,25.9408 2.18313,26.021 2.20571,26.101 2.22909,26.1808 2.25327,26.2604 2.27823,26.3397 2.304,26.4188 2.33055,26.4976 2.35788,26.5761 2.386,26.6543 2.41491,26.7323 2.44459,26.81 2.47504,26.8873 2.50627,26.9644 2.53826,27.0411 2.57103,27.1176 2.60455,27.1937 2.63884,27.2694 2.67388,27.3448 2.70967,27.4199 2.74621,27.4946 2.7835,27.5689 2.82152,27.6428 2.86029,27.7164 2.89979,27.7896 2.94001,27.8623 2.98097,27.9347 3.02264,28.0066 3.06504,28.0782 3.10814,28.1493 3.15196,28.2199 3.19648,28.2902 3.2417,28.3599 3.28761,28.4293 3.33422,28.4981 3.38151,28.5665 3.42948,28.6344 3.47813,28.7019 3.52746,28.7688 3.57744,28.8353 3.6281,28.9012 3.6794,28.9666 3.73136,29.0315 3.78397,29.0959 3.83722,29.1598 3.8911,29.2231 3.94562,29.2859 4.00075,29.3481 4.05651,29.4098 4.11289,29.4709 4.16987,29.5315 4.22745,29.5915 4.28563,29.6509 4.3444,29.7097 4.40376,29.7679 4.4637,29.8256 4.52421,29.8826 4.58529,29.939 4.64692,29.9948 4.70912,30.05 4.77186,30.1046 4.83514,30.1585 4.89896,30.2118 4.96331,30.2645 5.02819,30.3165 5.09358,30.3678 5.15948,30.4185 5.22588,30.4686 5.29279,30.518 5.36018,30.5667 5.42805,30.6147 5.49641,30.662 5.56523,30.7087 5.63452,30.7547 5.70426,30.7999 5.77445,30.8445 5.84508,30.8884 5.91615,30.9316 5.98765,30.974 6.05957,31.0157 6.1319,31.0568 6.20464,31.097 6.27777,31.1366 6.3513,31.1754 6.42522,31.2135 6.49951,31.2508 6.57417,31.2874 6.64919,31.3233 6.72457,31.3584 6.80029,31.3927 6.87636,31.4263 6.95275,31.4592 7.02948,31.4912 7.10651,31.5225 7.18386,31.553 7.26151,31.5828 7.33945,31.6117 7.41768,31.6399 7.49618,31.6673 7.57496,31.6939 7.65399,31.7197 7.73329,31.7448 7.81282,31.769 7.8926,31.7925 7.97261,31.8151 8.05284,31.8369 8.13328,31.858 8.21393,31.8782 8.29478,31.8976 8.37582,31.9163 8.45704,31.9341 8.53843,31.951 8.61999,31.9672 8.70171,31.9826 8.78358,31.9971 8.86559,32.0108 8.94773,32.0238 9.03,32.0358 9.11238,32.0471 9.19487,32.0575 9.27747,32.0671 9.36015,32.0759 9.44292,32.0839 9.52576,32.091 9.60867,32.0973 9.69164,32.1027 9.77466,32.1074 9.85772,32.1112 9.94082,32.1142 10.0239,32.1163 10.1071,32.1176 10.1902,32.1181 10.1969,32.1181 23.8031,32.1181 23.8863,32.1177 23.9694,32.1164 24.0526,32.1144 24.1357,32.1115 24.2187,32.1077 24.3017,32.1031 24.3847,32.0977 24.4676,32.0915 24.5505,32.0845 24.6333,32.0766 24.716,32.0679 24.7986,32.0583 24.8811,32.0479 24.9634,32.0368 25.0457,32.0247 25.1279,32.0119 25.2099,31.9982 25.2918,31.9838 25.3735,31.9685 25.4551,31.9524 25.5365,31.9354 25.6177,31.9177 25.6988,31.8991 25.7796,31.8798 25.8603,31.8596 25.9408,31.8386 26.021,31.8169 26.101,31.7943 26.1808,31.7709 26.2604,31.7467 26.3397,31.7218 26.4188,31.696 26.4976,31.6695 26.5761,31.6421 26.6543,31.614 26.7323,31.5851 26.81,31.5554 26.8873,31.525 26.9644,31.4937 27.0411,31.4617 27.1176,31.429 27.1937,31.3954 27.2694,31.3612 27.3448,31.3261 27.4199,31.2903 27.4946,31.2538 27.5689,31.2165 27.6428,31.1785 27.7164,31.1397 27.7896,31.1002 27.8623,31.06 27.9347,31.019 28.0066,30.9774 28.0782,30.935 28.1493,30.8919 28.2199,30.848 28.2902,30.8035 28.3599,30.7583 28.4293,30.7124 28.4981,30.6658 28.5665,30.6185 28.6344,30.5705 28.7019,30.5219 28.7688,30.4725 28.8353,30.4226 28.9012,30.3719 28.9666,30.3206 29.0315,30.2686 29.0959,30.216 29.1598,30.1628 29.2231,30.1089 29.2859,30.0544 29.3481,29.9992 29.4098,29.9435 29.4709,29.8871 29.5315,29.8301 29.5915,29.7725 29.6509,29.7144 29.7097,29.6556 29.7679,29.5962 29.8256,29.5363 29.8826,29.4758 29.939,29.4147 29.9948,29.3531 30.05,29.2909 30.1046,29.2281 30.1585,29.1649 30.2118,29.101 30.2645,29.0367 30.3165,28.9718 30.3678,28.9064 30.4185,28.8405 30.4686,28.7741 30.518,28.7072 30.5667,28.6398 30.6147,28.5719 30.662,28.5036 30.7087,28.4348 30.7547,28.3655 30.7999,28.2957 30.8445,28.2256 30.8884,28.1549 30.9316,28.0838 30.974,28.0124 31.0157,27.9404 31.0568,27.8681 31.097,27.7954 31.1366,27.7222 31.1754,27.6487 31.2135,27.5748 31.2508,27.5005 31.2874,27.4258 31.3233,27.3508 31.3584,27.2754 31.3927,27.1997 31.4263,27.1236 31.4592,27.0472 31.4912,26.9705 31.5225,26.8935 31.553,26.8161 31.5828,26.7385 31.6117,26.6606 31.6399,26.5823 31.6673,26.5038 31.6939,26.425 31.7197,26.346 31.7448,26.2667 31.769,26.1872 31.7925,26.1074 31.8151,26.0274 31.8369,25.9472 31.858,25.8667 31.8782,25.7861 31.8976,25.7052 31.9163,25.6242 31.9341,25.543 31.951,25.4616 31.9672,25.38 31.9826,25.2983 31.9971,25.2164 32.0108,25.1344 32.0238,25.0523 32.0358,24.97 32.0471,24.8876 32.0575,24.8051 32.0671,24.7225 32.0759,24.6398 32.0839,24.5571 32.091,24.4742 32.0973,24.3913 32.1027,24.3084 32.1074,24.2253 32.1112,24.1423 32.1142,24.0592 32.1163,23.9761 32.1176,23.8929 32.1181,23.8098 32.1181,23.8031 32.1181,10.1969 32.1177,10.1137 32.1164,10.0306 32.1144,9.94744 32.1115,9.86434 32.1077,9.78128 32.1031,9.69825 32.0977,9.61528 32.0915,9.53236 32.0845,9.44951 32.0766,9.36674 32.0679,9.28405 32.0583,9.20145 32.0479,9.11895 32.0368,9.03655 32.0247,8.95428 32.0119,8.87213 31.9982,8.79011 31.9838,8.70823 31.9685,8.6265 31.9524,8.54492 31.9354,8.46351 31.9177,8.38228 31.8991,8.30123 31.8798,8.22036 31.8596,8.1397 31.8386,8.05924 31.8169,7.97899 31.7943,7.89896 31.7709,7.81917 31.7467,7.73961 31.7218,7.6603 31.696,7.58124 31.6695,7.50245 31.6421,7.42392 31.614,7.34567 31.5851,7.2677 31.5554,7.19003 31.525,7.11266 31.4937,7.0356 31.4617,6.95885 31.429,6.88243 31.3954,6.80634 31.3612,6.73059 31.3261,6.65518 31.2903,6.58013 31.2538,6.50544 31.2165,6.43112 31.1785,6.35717 31.1397,6.28361 31.1002,6.21045 31.06,6.13768 31.019,6.06531 30.9774,5.99336 30.935,5.92183 30.8919,5.85073 30.848,5.78006 30.8035,5.70983 30.7583,5.64005 30.7124,5.57073 30.6658,5.50187 30.6185,5.43348 30.5705,5.36557 30.5219,5.29813 30.4725,5.23119 30.4226,5.16475 30.3719,5.09881 30.3206,5.03338 30.2686,4.96846 30.216,4.90407 30.1628,4.84021 30.1089,4.77688 30.0544,4.71409 29.9992,4.65186 29.9435,4.59017 29.8871,4.52905 29.8301,4.4685 29.7725,4.40851 29.7144,4.34911 29.6556,4.29029 29.5962,4.23206 29.5363,4.17443 29.4758,4.1174 29.4147,4.06098 29.3531,4.00517 29.2909,3.94998 29.2281,3.89542 29.1649,3.84149 29.101,3.78819 29.0367,3.73553 28.9718,3.68352 28.9064,3.63216 28.8405,3.58145 28.7741,3.53141 28.7072,3.48204 28.6398,3.43333 28.5719,3.3853 28.5036,3.33796 28.4348,3.2913 28.3655,3.24533 28.2957,3.20005 28.2256,3.15548 28.1549,3.11161 28.0838,3.06844 28.0124,3.02599 27.9404,2.98426 27.8681,2.94325 27.7954,2.90296 27.7222,2.86341 27.6487,2.82458 27.5748,2.7865 27.5005,2.74915 27.4258,2.71255 27.3508,2.6767 27.2754,2.6416 27.1997,2.60725 27.1236,2.57367 27.0472,2.54085 26.9705,2.50879 26.8935,2.4775 26.8161,2.44698 26.7385,2.41724 26.6606,2.38828 26.5823,2.36009 26.5038,2.33269 26.425,2.30608 26.346,2.28026 26.2667,2.25522 26.1872,2.23099 26.1074,2.20754 26.0274,2.1849 25.9472,2.16306 25.8667,2.14202 25.7861,2.12179 25.7052,2.10236 25.6242,2.08375 25.543,2.06594 25.4616,2.04895 25.38,2.03278 25.2983,2.01742 25.2164,2.00287 25.1344,1.98915 25.0523,1.97625 24.97,1.96417 24.8876,1.95291 24.8051,1.94248 24.7225,1.93287 24.6398,1.92409 24.5571,1.91614 24.4742,1.90902 24.3913,1.90272 24.3084,1.89725 24.2253,1.89261 24.1423,1.88881 24.0592,1.88583 23.9761,1.88369 23.8929,1.88237 23.8098,1.88189 " />
</g>
</svg>
